<svg aria-hidden="true" style="position: absolute; width: 0; height: 0; overflow: hidden;" version="1.1" xmlns="http://www.w3.org/2000/svg" xmlns:xlink="http://www.w3.org/1999/xlink">
<defs>
<symbol id="icon-mining" viewBox="0 0 32 32">
<path d="M9.591 2.712c-2.838 1.564-5.993 4.529-7.937 7.458-0.298 0.443-0.678 1.049-0.841 1.338-0.253 0.461-0.28 0.533-0.154 0.633 0.072 0.063 0.832 0.714 1.69 1.464 0.859 0.741 1.582 1.365 1.609 1.374 0.036 0.018 0.244-0.307 0.461-0.723 0.741-1.401 2.423-3.733 2.64-3.661 0.117 0.036 6.59 6.753 6.59 6.843 0 0.054-7.268 7.123-9.546 9.275-0.877 0.832-0.886 0.958-0.090 1.826 0.732 0.786 1.238 1.148 1.519 1.085 0.127-0.036 2.332-2.26 5.089-5.125 2.685-2.784 4.927-5.053 4.981-5.044 0.045 0.018 2.278 2.296 4.963 5.071 2.766 2.866 4.963 5.062 5.080 5.089 0.28 0.072 0.57-0.127 1.356-0.931 0.669-0.678 0.832-0.994 0.696-1.293-0.045-0.090-2.368-2.368-5.162-5.062l-5.089-4.908 2.16-2.224c1.184-1.22 2.576-2.667 3.082-3.2l0.931-0.976 0.777 0.768 0.777 0.759 3.092 1.546c1.708 0.85 3.119 1.546 3.146 1.546s-0.651-1.392-1.501-3.101l-1.546-3.092-0.805-0.823c-0.805-0.814-0.814-0.814-0.624-0.985 0.099-0.090 0.181-0.208 0.181-0.262s-0.316-0.416-0.705-0.805c-0.705-0.696-0.705-0.705-0.877-0.515-0.090 0.099-0.208 0.181-0.262 0.181s-0.913-0.814-1.907-1.808l-1.808-1.808-3.164 3.164 3.616 3.634-1.537 1.492c-0.841 0.814-2.287 2.215-3.209 3.101l-1.672 1.609-6.942-6.707 0.398-0.353c0.669-0.597 2.16-1.618 3.128-2.142 0.515-0.271 0.931-0.515 0.931-0.542 0-0.063-2.884-3.381-2.965-3.408-0.036-0.018-0.28 0.099-0.551 0.244z"></path>
</symbol>
<symbol id="icon-ancash" viewBox="0 0 31 32">
<path d="M15.777 31.216c0.348-0.174 0.936-0.283 1.306-0.239 0.522 0.044 0.697-0.087 0.936-0.544 0.152-0.327 0.653-0.893 1.132-1.263 0.871-0.675 2.503-3.548 2.264-3.94-0.196-0.327 0.348-1.067 0.784-1.067 0.218 0 0.675-0.152 1.023-0.327 0.327-0.174 0.98-0.457 1.415-0.631 0.718-0.283 0.827-0.435 0.958-1.197 0.087-0.479 0.261-1.001 0.435-1.132 0.327-0.261 0.196-0.762-0.414-1.459-0.348-0.37-0.392-0.544-0.196-0.74 0.152-0.152 0.261-0.37 0.261-0.479 0-0.131-0.109-0.109-0.261 0.044-0.501 0.501-0.893 0.305-0.762-0.392 0.109-0.479 0.044-0.718-0.283-0.936-0.457-0.305-0.893-1.241-1.023-2.112-0.152-1.154-0.305-1.48-1.023-2.438-0.501-0.653-0.718-1.132-0.653-1.437 0.065-0.239-0.087-0.893-0.327-1.458-0.261-0.566-0.457-1.219-0.457-1.437s-0.261-0.805-0.61-1.328c-0.914-1.458-1.088-1.742-1.546-2.678-1.023-2.090-1.741-2.133-2.046-0.131-0.174 1.067-0.218 1.132-0.762 1.067-0.762-0.087-0.871-0.718-0.239-1.393l0.479-0.522h-0.544c-0.74 0-1.241-0.61-1.306-1.589-0.044-0.762-0.087-0.805-0.762-0.805-0.501 0-0.936 0.218-1.459 0.718-0.435 0.37-1.175 1.023-1.654 1.437-0.566 0.457-0.871 0.914-0.871 1.241 0 0.566-0.544 0.98-1.763 1.371-0.74 0.239-0.805 0.327-0.914 1.284-0.087 0.827-0.044 1.067 0.305 1.306 0.239 0.152 0.414 0.544 0.414 0.871s0.196 1.023 0.435 1.546c0.544 1.197 0.566 1.175-0.218 2.242-0.37 0.479-0.653 1.067-0.653 1.263 0 0.697-1.11 2.917-1.807 3.657l-0.697 0.718 0.522 0.435c0.283 0.218 0.631 0.414 0.784 0.414 0.131 0 0.435 0.196 0.653 0.435s0.501 0.435 0.653 0.435c0.131 0 0.457 0.305 0.718 0.653 0.283 0.37 0.61 0.653 0.784 0.653 0.414 0 1.219 0.936 1.219 1.437 0 0.239 0.239 0.675 0.522 0.936 0.348 0.327 0.588 0.849 0.675 1.546 0.087 0.566 0.327 1.306 0.566 1.654 0.936 1.437 1.437 2.046 2.199 2.699 0.457 0.392 0.827 0.849 0.827 1.067 0 0.697 0.283 0.849 0.98 0.544z"></path>
</symbol>
<symbol id="icon-office" viewBox="0 0 32 32">
<path d="M0 32h16v-32h-16v32zM10 4h4v4h-4v-4zM10 12h4v4h-4v-4zM10 20h4v4h-4v-4zM2 4h4v4h-4v-4zM2 12h4v4h-4v-4zM2 20h4v4h-4v-4zM18 10h14v2h-14zM18 32h4v-8h6v8h4v-18h-14z"></path>
</symbol>
</defs>
</svg>
