<?xml version="1.0" standalone="no"?>
<!DOCTYPE svg PUBLIC "-//W3C//DTD SVG 20010904//EN"
 "http://www.w3.org/TR/2001/REC-SVG-20010904/DTD/svg10.dtd">
<svg version="1.0" xmlns="http://www.w3.org/2000/svg"
	width="142.000000pt" height="147.000000pt" viewBox="0 0 142.000000 147.000000"
	preserveAspectRatio="xMidYMid meet">
	<g id="ancas" transform="translate(0.000000,147.000000) scale(0.100000,-0.100000)"
	fill="#000000" stroke="none">
		<path d="M695 1434 c-16 -8 -43 -13 -60 -11 -24 2 -32 -4 -43 -25 -7 -15 -30
		-41 -52 -58 -40 -31 -115 -163 -104 -181 9 -15 -16 -49 -36 -49 -10 0 -31 -7
		-47 -15 -15 -8 -45 -21 -65 -29 -33 -13 -38 -20 -44 -55 -4 -22 -12 -46 -20
		-52 -15 -12 -9 -35 19 -67 16 -17 18 -25 9 -34 -7 -7 -12 -17 -12 -22 0 -6 5
		-5 12 2 23 23 41 14 35 -18 -5 -22 -2 -33 13 -43 21 -14 41 -57 47 -97 7 -53
		14 -68 47 -112 23 -30 33 -52 30 -66 -3 -11 4 -41 15 -67 12 -26 21 -56 21
		-66 0 -10 12 -37 28 -61 42 -67 50 -80 71 -123 47 -96 80 -98 94 -6 8 49 10
		52 35 49 35 -4 40 -33 11 -64 l-22 -24 25 0 c34 0 57 -28 60 -73 2 -35 4 -37
		35 -37 23 0 43 10 67 33 20 17 54 47 76 66 26 21 40 42 40 57 0 26 25 45 81
		63 34 11 37 15 42 59 4 38 2 49 -14 60 -11 7 -19 25 -19 40 0 15 -9 47 -20 71
		-25 55 -26 54 10 103 17 22 30 49 30 58 0 32 51 134 83 168 l32 33 -24 20
		c-13 10 -29 19 -36 19 -6 0 -20 9 -30 20 -10 11 -23 20 -30 20 -6 0 -21 14
		-33 30 -13 17 -28 30 -36 30 -19 0 -56 43 -56 66 0 11 -11 31 -24 43 -16 15
		-27 39 -31 71 -4 26 -15 60 -26 76 -43 66 -66 94 -101 124 -21 18 -38 39 -38
		49 0 32 -13 39 -45 25z"/>
	</g>
	<symbol id="icon-ancash" viewBox="0 0 31 32"> 
	  <path d="M15.129 0.784c-0.348 0.174-0.936 0.283-1.306 0.239-0.522-0.044-0.697 0.087-0.936 0.544-0.152 0.327-0.653 0.893-1.132 1.263-0.871 0.675-2.503 3.548-2.264 3.94 0.196 0.327-0.348 1.067-0.784 1.067-0.218 0-0.675 0.152-1.023 0.327-0.327 0.174-0.98 0.457-1.415 0.631-0.718 0.283-0.827 0.435-0.958 1.197-0.087 0.479-0.261 1.001-0.435 1.132-0.327 0.261-0.196 0.762 0.414 1.458 0.348 0.37 0.392 0.544 0.196 0.74-0.152 0.152-0.261 0.37-0.261 0.479 0 0.131 0.109 0.109 0.261-0.044 0.501-0.501 0.893-0.305 0.762 0.392-0.109 0.479-0.044 0.718 0.283 0.936 0.457 0.305 0.893 1.241 1.023 2.112 0.152 1.154 0.305 1.48 1.023 2.438 0.501 0.653 0.718 1.132 0.653 1.437-0.065 0.239 0.087 0.893 0.327 1.459 0.261 0.566 0.457 1.219 0.457 1.437s0.261 0.805 0.61 1.328c0.914 1.459 1.088 1.741 1.546 2.678 1.023 2.090 1.742 2.133 2.046 0.131 0.174-1.067 0.218-1.132 0.762-1.067 0.762 0.087 0.871 0.718 0.239 1.393l-0.479 0.522h0.544c0.74 0 1.241 0.61 1.306 1.589 0.044 0.762 0.087 0.805 0.762 0.805 0.501 0 0.936-0.218 1.459-0.718 0.435-0.37 1.175-1.023 1.654-1.437 0.566-0.457 0.871-0.914 0.871-1.241 0-0.566 0.544-0.98 1.763-1.371 0.74-0.239 0.805-0.327 0.914-1.284 0.087-0.827 0.044-1.067-0.305-1.306-0.239-0.152-0.414-0.544-0.414-0.871s-0.196-1.023-0.435-1.546c-0.544-1.197-0.566-1.175 0.218-2.242 0.37-0.479 0.653-1.067 0.653-1.263 0-0.697 1.11-2.917 1.807-3.657l0.697-0.718-0.522-0.435c-0.283-0.218-0.631-0.414-0.784-0.414-0.131 0-0.435-0.196-0.653-0.435s-0.501-0.435-0.653-0.435c-0.131 0-0.457-0.305-0.718-0.653-0.283-0.37-0.61-0.653-0.784-0.653-0.414 0-1.219-0.936-1.219-1.437 0-0.239-0.239-0.675-0.522-0.936-0.348-0.327-0.588-0.849-0.675-1.546-0.087-0.566-0.327-1.306-0.566-1.654-0.936-1.437-1.437-2.046-2.199-2.699-0.457-0.392-0.827-0.849-0.827-1.067 0-0.697-0.283-0.849-0.98-0.544z"></path> 
	 </symbol> 
</svg>
